<svg xmlns="http://www.w3.org/2000/svg" xmlns:xlink="http://www.w3.org/1999/xlink" width="500" zoomAndPan="magnify" viewBox="0 0 375 374.999991" height="500" preserveAspectRatio="xMidYMid meet" version="1.0"><defs><g><g id="id1"/><g id="id2"/><g id="id3"/><g id="id4"/><g id="id5"/><g id="id6"/><g id="id7"/><g id="id8"/></g></defs><path fill="rgb(100%, 100%, 100%)" d="M 187.621094 4.175781 C 86.550781 4.175781 4.621094 86.105469 4.621094 187.175781 C 4.621094 288.242188 86.550781 370.175781 187.621094 370.175781 C 288.6875 370.175781 370.621094 288.242188 370.621094 187.175781 C 370.621094 86.105469 288.6875 4.175781 187.621094 4.175781 " fill-opacity="1" fill-rule="nonzero"/><path fill="rgb(10.978699%, 14.509583%, 16.079712%)" d="M 187.351562 374.699219 C 137.332031 374.699219 90.230469 355.230469 54.886719 319.8125 C 19.46875 284.46875 0 237.371094 0 187.351562 C 0 137.332031 19.46875 90.230469 54.886719 54.886719 C 90.230469 19.46875 137.332031 0 187.351562 0 C 237.371094 0 284.46875 19.46875 319.8125 54.886719 C 355.230469 90.304688 374.699219 137.332031 374.699219 187.351562 C 374.699219 237.371094 355.230469 284.46875 319.8125 319.8125 C 284.46875 355.230469 237.371094 374.699219 187.351562 374.699219 Z M 187.351562 11.230469 C 140.324219 11.230469 96.070312 29.578125 62.824219 62.824219 C 29.578125 96.070312 11.230469 140.324219 11.230469 187.351562 C 11.230469 234.375 29.578125 278.628906 62.824219 311.875 C 96.070312 345.121094 140.324219 363.46875 187.351562 363.46875 C 234.375 363.46875 278.628906 345.121094 311.875 311.875 C 345.121094 278.628906 363.46875 234.375 363.46875 187.351562 C 363.46875 140.324219 345.121094 96.070312 311.875 62.824219 C 278.628906 29.578125 234.375 11.230469 187.351562 11.230469 Z M 187.351562 11.230469 " fill-opacity="1" fill-rule="nonzero"/><path fill="rgb(10.978699%, 14.509583%, 16.079712%)" d="M 187.496094 19.496094 C 94.714844 19.496094 19.496094 94.714844 19.496094 187.496094 C 19.496094 280.28125 94.714844 355.496094 187.496094 355.496094 C 280.28125 355.496094 355.496094 280.28125 355.496094 187.496094 C 355.496094 94.714844 280.28125 19.496094 187.496094 19.496094 " fill-opacity="1" fill-rule="nonzero"/><path fill="rgb(100%, 100%, 100%)" d="M 187.605469 137.539062 C 160.269531 137.539062 138.105469 159.699219 138.105469 187.039062 C 138.105469 214.375 160.269531 236.539062 187.605469 236.539062 C 214.945312 236.539062 237.105469 214.375 237.105469 187.039062 C 237.105469 159.699219 214.945312 137.539062 187.605469 137.539062 " fill-opacity="1" fill-rule="nonzero"/><g fill="rgb(100%, 100%, 100%)" fill-opacity="1"><g transform="translate(40.679899, 215.986797)"><g><path d="M 32.921875 35.140625 C 27.035156 37.804688 22.195312 39.625 18.40625 40.59375 L 0.921875 2.015625 L 2.890625 0.640625 C 4.828125 1.816406 6.753906 3.253906 8.671875 4.953125 L 43.59375 -10.890625 L 42.046875 -16.46875 L 45.640625 -18.015625 L 55.921875 4.65625 L 53.953125 6.015625 C 52.054688 4.941406 50.128906 3.507812 48.171875 1.71875 L 15.140625 16.703125 L 21.71875 28.203125 L 32.875 26.796875 L 35.421875 34 Z M 32.921875 35.140625 "/></g></g></g><g fill="rgb(100%, 100%, 100%)" fill-opacity="1"><g transform="translate(84.210141, 287.405316)"><g><path d="M 48.671875 -28.625 C 54.710938 -24.695312 58.335938 -19.378906 59.546875 -12.671875 C 60.765625 -5.972656 59.238281 0.664062 54.96875 7.25 C 50.800781 13.664062 45.578125 17.585938 39.296875 19.015625 C 33.015625 20.441406 26.847656 19.191406 20.796875 15.265625 C 14.671875 11.296875 10.9375 6.0625 9.59375 -0.4375 C 8.25 -6.9375 9.660156 -13.394531 13.828125 -19.8125 C 18.046875 -26.3125 23.414062 -30.367188 29.9375 -31.984375 C 36.46875 -33.609375 42.710938 -32.488281 48.671875 -28.625 Z M 39.578125 -24.8125 C 37.671875 -24.507812 35.53125 -23.347656 33.15625 -21.328125 C 30.789062 -19.304688 28.550781 -16.660156 26.4375 -13.390625 C 23.15625 -8.335938 21.425781 -3.707031 21.25 0.5 C 21.082031 4.71875 22.613281 7.875 25.84375 9.96875 C 26.882812 10.632812 27.960938 11.097656 29.078125 11.359375 C 31.273438 10.960938 33.632812 9.726562 36.15625 7.65625 C 38.675781 5.582031 40.972656 2.953125 43.046875 -0.234375 C 46.210938 -5.117188 47.898438 -9.671875 48.109375 -13.890625 C 48.328125 -18.109375 46.941406 -21.1875 43.953125 -23.125 C 42.710938 -23.9375 41.253906 -24.5 39.578125 -24.8125 Z M 39.578125 -24.8125 "/></g></g></g><g fill="rgb(100%, 100%, 100%)" fill-opacity="1"><g transform="translate(163.90011, 325.319334)"><g><path d="M 43.671875 -4.8125 L 28.046875 1.609375 C 21.578125 1.765625 16.304688 0.613281 12.234375 -1.84375 C 8.171875 -4.3125 5.257812 -7.503906 3.5 -11.421875 C 1.75 -15.347656 0.898438 -19.484375 0.953125 -23.828125 C 1.015625 -28.460938 2.039062 -32.796875 4.03125 -36.828125 C 6.03125 -40.859375 8.992188 -44.109375 12.921875 -46.578125 C 16.859375 -49.046875 21.613281 -50.25 27.1875 -50.1875 C 33.164062 -50.113281 38.351562 -48.445312 42.75 -45.1875 L 42.8125 -43.78125 C 42.757812 -39.78125 42.085938 -35.515625 40.796875 -30.984375 L 32.8125 -31.078125 L 30.71875 -41.03125 C 27.613281 -42.25 24.40625 -42.953125 21.09375 -43.140625 C 18.90625 -41.242188 17.257812 -38.722656 16.15625 -35.578125 C 15.0625 -32.429688 14.492188 -29.101562 14.453125 -25.59375 C 14.390625 -20.164062 15.609375 -15.707031 18.109375 -12.21875 C 20.609375 -8.726562 24.253906 -7.007812 29.046875 -7.0625 L 41.6875 -10.90625 Z M 43.671875 -4.8125 "/></g></g></g><g fill="rgb(100%, 100%, 100%)" fill-opacity="1"><g transform="translate(245.708061, 316.663733)"><g><path d="M 44.34375 -32.65625 L 46.390625 -29.3125 L 25.15625 -15.890625 L 23.53125 -17.6875 C 24.164062 -19.238281 25.238281 -21.226562 26.75 -23.65625 L 20.8125 -28.203125 L 7.03125 -19.5 L 8.671875 -11.359375 L 14.609375 -13.875 L 16.65625 -10.53125 L -0.875 0.546875 L -2.515625 -1.21875 C -1.691406 -3.132812 -0.550781 -5.203125 0.90625 -7.421875 L -6.53125 -48.859375 L -9.09375 -50.84375 L -0.890625 -59.515625 L 39.40625 -30.5 Z M 15.46875 -32.1875 L 2.296875 -42.265625 L 5.640625 -25.984375 Z M 15.46875 -32.1875 "/></g></g></g><g fill="rgb(100%, 100%, 100%)" fill-opacity="1"><g transform="translate(316.022856, 257.728146)"><g><path d="M 4.734375 -47.921875 C 10.617188 -45.253906 15.175781 -42.8125 18.40625 -40.59375 L 0.921875 -2.015625 L -1.421875 -2.609375 C -1.816406 -4.847656 -2.003906 -7.234375 -1.984375 -9.765625 L -36.90625 -25.609375 L -40.078125 -20.78125 L -43.640625 -22.453125 L -33.359375 -45.125 L -31.015625 -44.546875 C -30.578125 -42.410156 -30.390625 -40.019531 -30.453125 -37.375 L 2.578125 -22.390625 L 6.90625 -34.921875 L -1.5 -42.390625 L 2.234375 -49.0625 Z M 4.734375 -47.921875 "/></g></g></g><path fill="rgb(10.978699%, 14.509583%, 16.079712%)" d="M 187.363281 171.796875 C 179.078125 171.796875 172.363281 178.511719 172.363281 186.796875 C 172.363281 195.078125 179.078125 201.796875 187.363281 201.796875 C 195.648438 201.796875 202.363281 195.078125 202.363281 186.796875 C 202.363281 178.511719 195.648438 171.796875 187.363281 171.796875 " fill-opacity="1" fill-rule="nonzero"/><g fill="rgb(100%, 100%, 100%)" fill-opacity="1"><g transform="translate(105.196713, 131.07539)"><g><path d="M 29.5625 -38.828125 L 36.15625 -28.078125 L 25.53125 -13.921875 L 23.609375 -12.65625 C 18.429688 -9.476562 13.523438 -7.929688 8.890625 -8.015625 C 4.265625 -8.097656 0.207031 -9.3125 -3.28125 -11.65625 C -6.78125 -14 -9.613281 -16.945312 -11.78125 -20.5 C -15.832031 -27.101562 -16.988281 -33.921875 -15.25 -40.953125 C -13.519531 -47.992188 -9.140625 -53.671875 -2.109375 -57.984375 C 3.316406 -61.316406 8.691406 -62.847656 14.015625 -62.578125 L 14.9375 -61.234375 C 16.863281 -58.078125 18.441406 -54.414062 19.671875 -50.25 L 12.921875 -46.109375 L 6.28125 -52.546875 C 2.414062 -51.742188 -1.304688 -50.207031 -4.890625 -47.9375 C -5.828125 -45.21875 -5.953125 -42.1875 -5.265625 -38.84375 C -4.578125 -35.5 -3.28125 -32.265625 -1.375 -29.140625 C 1.59375 -24.304688 5.15625 -21.117188 9.3125 -19.578125 C 13.46875 -18.046875 17.503906 -18.484375 21.421875 -20.890625 L 24.84375 -23.421875 L 19.921875 -31.4375 C 16.429688 -30.976562 13.785156 -30.800781 11.984375 -30.90625 L 11.078125 -33.234375 L 31.71875 -45.90625 L 33.609375 -42.96875 Z M 29.5625 -38.828125 "/></g></g></g><g fill="rgb(100%, 100%, 100%)" fill-opacity="1"><g transform="translate(172.241669, 100.499993)"><g><path d="M 28.234375 -3.921875 L 28.15625 0 L 2.21875 0 L 1.78125 -2.375 C 3.65625 -3.65625 5.753906 -4.816406 8.078125 -5.859375 L 8.078125 -44.234375 L 2.375 -45.125 L 2.4375 -49.046875 L 27.34375 -49.046875 L 27.78125 -46.671875 C 26.007812 -45.390625 23.910156 -44.234375 21.484375 -43.203125 L 21.484375 -5.03125 Z M 28.234375 -3.921875 "/></g></g></g><g fill="rgb(100%, 100%, 100%)" fill-opacity="1"><g transform="translate(224.583197, 103.634932)"><g><path d="M 48 8.765625 L 41.40625 19.515625 L 23.96875 16.453125 L 21.984375 15.3125 C 16.804688 12.132812 13.203125 8.460938 11.171875 4.296875 C 9.148438 0.128906 8.394531 -4.039062 8.90625 -8.21875 C 9.425781 -12.394531 10.769531 -16.257812 12.9375 -19.8125 C 16.988281 -26.414062 22.539062 -30.53125 29.59375 -32.15625 C 36.65625 -33.789062 43.703125 -32.453125 50.734375 -28.140625 C 56.160156 -24.804688 59.960938 -20.710938 62.140625 -15.859375 L 61.34375 -14.421875 C 59.414062 -11.265625 56.867188 -8.195312 53.703125 -5.21875 L 46.953125 -9.359375 L 49.6875 -18.203125 C 47.21875 -21.273438 44.160156 -23.90625 40.515625 -26.09375 C 37.660156 -25.6875 34.898438 -24.421875 32.234375 -22.296875 C 29.566406 -20.171875 27.28125 -17.546875 25.375 -14.421875 C 22.40625 -9.585938 21.175781 -4.96875 21.6875 -0.5625 C 22.195312 3.832031 24.410156 7.234375 28.328125 9.640625 L 32.125 11.546875 L 37.046875 3.53125 C 35.054688 0.613281 33.703125 -1.664062 32.984375 -3.3125 L 34.640625 -5.171875 L 55.28125 7.5 L 53.546875 10.5 Z M 48 8.765625 "/></g></g></g></svg>