<?xml version="1.0" standalone="no"?>
<!DOCTYPE svg PUBLIC "-//W3C//DTD SVG 20010904//EN"
 "http://www.w3.org/TR/2001/REC-SVG-20010904/DTD/svg10.dtd">
<svg version="1.0" xmlns="http://www.w3.org/2000/svg"
 width="500.000000pt" height="500.000000pt" viewBox="0 0 500.000000 500.000000"
 preserveAspectRatio="xMidYMid meet">
<metadata>
Created by potrace 1.14, written by Peter Selinger 2001-2017
</metadata>
<g transform="translate(0.000000,500.000000) scale(0.100000,-0.100000)"
fill="#000000" stroke="none">
<path d="M2329 4996 c-2 -2 -40 -6 -84 -10 -109 -9 -283 -41 -391 -72 -49 -14
-93 -26 -99 -28 -78 -22 -115 -35 -223 -81 -306 -129 -563 -302 -792 -534
-296 -298 -480 -593 -613 -981 -24 -69 -70 -241 -81 -300 -36 -208 -41 -266
-40 -505 1 -217 14 -347 55 -530 12 -49 23 -100 25 -112 2 -12 25 -82 50 -155
188 -547 577 -1027 1079 -1330 136 -82 210 -119 370 -183 81 -32 251 -87 312
-100 253 -54 371 -68 578 -69 147 0 292 7 355 19 14 2 57 9 95 15 123 19 359
83 460 125 214 88 331 148 472 242 477 315 826 764 1006 1293 32 94 62 198 73
255 10 50 27 143 30 168 2 15 6 42 9 60 28 183 23 497 -10 702 -22 136 -24
142 -55 262 -49 185 -84 275 -179 468 -293 596 -830 1058 -1470 1265 -92 30
-229 65 -295 75 -21 4 -47 8 -56 10 -10 2 -40 6 -67 10 -26 4 -59 9 -73 12
-29 5 -436 14 -441 9z"/>
</g>
</svg>
