<?xml version="1.0" standalone="no"?>
<!DOCTYPE svg PUBLIC "-//W3C//DTD SVG 20010904//EN"
 "http://www.w3.org/TR/2001/REC-SVG-20010904/DTD/svg10.dtd">
<svg version="1.0" xmlns="http://www.w3.org/2000/svg"
 width="700.000000pt" height="700.000000pt" viewBox="0 0 700.000000 700.000000"
 preserveAspectRatio="xMidYMid meet">
<metadata>
Created by potrace 1.14, written by Peter Selinger 2001-2017
</metadata>
<g transform="translate(0.000000,700.000000) scale(0.100000,-0.100000)"
fill="#000000" stroke="none">
<path d="M3278 6995 c-1 -1 -41 -6 -88 -9 -81 -6 -119 -11 -185 -21 -16 -3
-50 -8 -75 -11 -101 -13 -370 -78 -509 -123 -160 -53 -416 -155 -442 -177 -8
-8 -20 -14 -26 -14 -12 0 -160 -80 -268 -145 -410 -247 -804 -621 -1077 -1020
-140 -206 -296 -503 -373 -710 -20 -55 -41 -109 -45 -120 -20 -48 -90 -293
-105 -367 -3 -16 -7 -38 -10 -50 -16 -74 -40 -217 -50 -293 -27 -214 -27 -686
0 -847 2 -13 6 -45 9 -73 6 -54 11 -81 27 -161 5 -28 12 -61 14 -75 9 -46 13
-65 35 -149 21 -85 73 -257 89 -295 5 -11 26 -65 46 -120 43 -111 135 -308
191 -406 20 -35 45 -79 55 -97 30 -52 136 -209 197 -292 178 -240 409 -475
684 -696 172 -137 513 -339 718 -424 41 -17 89 -37 105 -45 118 -52 427 -144
610 -181 64 -12 126 -24 170 -30 28 -4 52 -8 55 -9 3 0 46 -5 95 -9 50 -4 104
-10 120 -12 88 -12 506 -5 625 11 19 2 55 7 80 10 117 15 247 39 380 69 226
52 527 165 760 285 380 194 729 465 1010 781 41 47 77 87 80 90 20 19 140 176
193 252 221 319 390 679 492 1048 35 126 79 327 89 410 3 25 7 54 10 65 2 11
7 56 11 100 4 44 9 98 11 120 7 60 7 454 0 500 -3 22 -8 74 -11 115 -7 75 -48
330 -66 405 -5 22 -12 49 -14 60 -20 95 -96 332 -145 455 -98 248 -254 532
-411 751 -139 194 -362 439 -554 608 -172 151 -452 342 -670 456 -317 166
-747 308 -1055 350 -19 3 -46 7 -60 10 -13 2 -52 7 -86 11 -33 3 -74 8 -90 10
-33 5 -540 14 -546 9z"/>
</g>
</svg>
